<?xml version="1.0" encoding="iso-8859-1"?>
<!-- Generator: Adobe Illustrator 19.0.0, SVG Export Plug-In . SVG Version: 6.00 Build 0)  -->
<svg version="1.1" id="Layer_1" xmlns="http://www.w3.org/2000/svg" xmlns:xlink="http://www.w3.org/1999/xlink" x="0px" y="0px"
	 viewBox="0 0 512.001 512.001" style="enable-background:new 0 0 512.001 512.001;" xml:space="preserve">
<path style="fill:#696B6F;" d="M54.023,339.598L14.67,378.951c-19.561,19.561-19.561,51.273,0,70.834l47.222,47.222
	c19.561,19.561,51.273,19.561,70.834,0l39.352-39.352L54.023,339.598z"/>
<path style="fill:#616267;" d="M38.283,473.396l23.611,23.611c19.561,19.561,51.273,19.561,70.834,0l39.352-39.352l-59.028-59.028
	L38.283,473.396z"/>
<rect x="52.232" y="275.795" transform="matrix(0.7071 -0.7071 0.7071 0.7071 -209.4057 212.9955)" style="fill:#FFE477;" width="200.346" height="166.955"/>
<rect x="140.179" y="288.626" transform="matrix(0.7071 0.7071 -0.7071 0.7071 328.205 -14.759)" style="fill:#FFB655;" width="83.477" height="200.346"/>
<path style="fill:#957856;" d="M144.533,343.534l-23.611-23.611c-6.52-6.52-6.52-17.091,0-23.611l0,0
	c6.52-6.52,17.091-6.52,23.611,0l23.611,23.611c6.52,6.52,6.52,17.091,0,23.611l0,0
	C161.623,350.054,151.053,350.054,144.533,343.534z"/>
<path style="fill:#FFE477;" d="M412.126,99.552L412.126,99.552c-6.52-6.52-6.52-17.091,0-23.611l39.352-39.352
	c6.52-6.52,17.091-6.52,23.611,0l0,0c6.52,6.52,6.52,17.091,0,23.611l-39.352,39.352
	C429.218,106.072,418.646,106.072,412.126,99.552z"/>
<path style="fill:#FFB655;" d="M435.738,99.552L475.09,60.2c6.52-6.52,6.519-17.092,0-23.611l-62.964,62.964
	C418.646,106.071,429.218,106.072,435.738,99.552z"/>
<path style="fill:#FFE477;" d="M416.056,308.078l-97.28,28.605L282.38,347.48h-0.111l-58.99-58.991l-59.104-59.103v-0.11
	c0.557-1.67,5.009-16.918,10.685-36.508c11.464-38.845,27.937-94.943,28.718-97.169l0.111,0.223h0.111l105.962,106.073h0.111
	l106.072,106.073L416.056,308.078z"/>
<polygon style="fill:#FFB655;" points="416.056,308.078 318.776,336.683 282.38,347.481 282.268,347.481 223.278,288.49 
	223.278,288.378 309.762,201.895 309.873,201.895 415.945,307.968 "/>
<path style="fill:#696B6F;" d="M451.479,272.7c0,0-34.709,34.394-35.574,35.259L203.719,95.774
	c0.866-0.866,35.259-35.574,35.259-35.574c19.597-19.597,51.237-19.597,70.834,0l141.667,141.667
	C471.076,221.464,471.076,253.104,451.479,272.7z"/>
<path style="fill:#616267;" d="M451.479,272.7c0,0-34.709,34.394-35.574,35.259L309.812,201.866l70.834-70.834l70.834,70.834
	C471.076,221.464,471.076,253.104,451.479,272.7z"/>
<path style="fill:#FFE477;" d="M361.74,67.105L361.74,67.105c-9.22,0-16.696-7.475-16.696-16.696V17.018
	c0-9.22,7.475-16.696,16.696-16.696l0,0c9.22,0,16.696,7.475,16.696,16.696V50.41C378.435,59.63,370.96,67.105,361.74,67.105z"/>
<path style="fill:#FFB655;" d="M495.305,167.279h-33.391c-9.22,0-16.696-7.475-16.696-16.696l0,0c0-9.22,7.475-16.696,16.696-16.696
	h33.391c9.22,0,16.696,7.475,16.696,16.696l0,0C512.001,159.804,504.525,167.279,495.305,167.279z"/>
<path style="fill:#957856;" d="M318.776,336.683L282.38,347.48h-0.111l-58.99-58.991v-0.111l-59.104-58.991v-0.11
	c0.557-1.67,5.009-16.918,10.685-36.508l72.014,72.014L318.776,336.683z"/>
<polygon style="fill:#816952;" points="223.278,288.378 223.278,288.378 223.278,288.49 282.268,347.481 318.776,336.683 
	246.872,264.782 "/>
<g>
</g>
<g>
</g>
<g>
</g>
<g>
</g>
<g>
</g>
<g>
</g>
<g>
</g>
<g>
</g>
<g>
</g>
<g>
</g>
<g>
</g>
<g>
</g>
<g>
</g>
<g>
</g>
<g>
</g>
</svg>
